<svg width="51" height="50" viewBox="0 0 51 50" fill="none" xmlns="http://www.w3.org/2000/svg">
<path fill-rule="evenodd" clip-rule="evenodd" d="M20.5313 12.5C20.5313 9.85102 22.7295 7.65628 25.5 7.65628C28.2706 7.65628 30.4688 9.85102 30.4688 12.5V13.1771H20.5313V12.5ZM17.7188 15.9896V18.75C17.7188 19.5267 18.3484 20.1563 19.125 20.1563C19.9017 20.1563 20.5313 19.5267 20.5313 18.75V15.9896H30.4688V18.75C30.4688 19.5267 31.0984 20.1563 31.875 20.1563C32.6517 20.1563 33.2813 19.5267 33.2813 18.75V15.9896H36.95L38.8543 40.2604H12.1462L14.0505 15.9896H17.7188ZM17.7188 13.1771V12.5C17.7188 8.24548 21.2289 4.84378 25.5 4.84378C29.7711 4.84378 33.2813 8.24548 33.2813 12.5V13.1771H38.2503C38.9842 13.1771 39.5948 13.7416 39.6522 14.4733L41.7772 41.5567C41.8079 41.9475 41.674 42.3335 41.4078 42.6213C41.1416 42.9092 40.7673 43.0729 40.3753 43.0729H10.6252C10.2332 43.0729 9.8589 42.9092 9.59272 42.6213C9.32654 42.3335 9.19264 41.9475 9.22331 41.5567L11.3483 14.4733C11.4057 13.7416 12.0163 13.1771 12.7502 13.1771H17.7188Z" fill="black"/>
</svg>
