<svg width="48" height="48" viewBox="0 0 48 48" fill="none" xmlns="http://www.w3.org/2000/svg">
<path d="M7.99976 22.5938C7.22311 22.5938 6.59351 23.2233 6.59351 24C6.59351 24.7767 7.22311 25.4062 7.99976 25.4062V22.5938ZM39.9998 25.4062C40.7764 25.4062 41.406 24.7767 41.406 24C41.406 23.2233 40.7764 22.5938 39.9998 22.5938V25.4062ZM7.99976 10.5938C7.22311 10.5938 6.59351 11.2233 6.59351 12C6.59351 12.7767 7.22311 13.4062 7.99976 13.4062V10.5938ZM39.9998 13.4062C40.7764 13.4062 41.406 12.7767 41.406 12C41.406 11.2233 40.7764 10.5938 39.9998 10.5938V13.4062ZM7.99976 34.5938C7.22311 34.5938 6.59351 35.2234 6.59351 36C6.59351 36.7766 7.22311 37.4062 7.99976 37.4062V34.5938ZM39.9998 37.4062C40.7764 37.4062 41.406 36.7766 41.406 36C41.406 35.2234 40.7764 34.5938 39.9998 34.5938V37.4062ZM7.99976 25.4062H39.9998V22.5938H7.99976V25.4062ZM7.99976 13.4062H39.9998V10.5938H7.99976V13.4062ZM7.99976 37.4062H39.9998V34.5938H7.99976V37.4062Z" fill="black"/>
</svg>
