<svg width="383" height="74" viewBox="0 0 383 74" fill="none" xmlns="http://www.w3.org/2000/svg">
<path d="M0.792001 73V0.999994H0.888001L37.944 53.512L33.528 52.552L70.392 0.999994H70.584V73H60.408V24.136L61.08 29.416L35.352 65.8H35.16L8.952 29.416L10.68 24.616V73H0.792001ZM85.9117 73L116.536 0.519995H117.112L147.736 73H136.024L113.752 16.552L121.144 11.656L95.9917 73H85.9117ZM104.536 46.888H129.304L132.856 55.72H101.464L104.536 46.888ZM215.497 66.856C214.537 67.688 213.193 68.52 211.465 69.352C209.737 70.184 207.785 70.92 205.609 71.56C203.497 72.2 201.321 72.712 199.081 73.096C196.841 73.544 194.729 73.768 192.745 73.768C187.113 73.768 182.057 72.904 177.577 71.176C173.097 69.448 169.257 67.048 166.057 63.976C162.857 60.904 160.393 57.32 158.665 53.224C157.001 49.064 156.169 44.552 156.169 39.688C156.169 33.736 157.129 28.456 159.049 23.848C160.969 19.24 163.561 15.368 166.825 12.232C170.153 9.032 173.961 6.632 178.249 5.032C182.601 3.368 187.145 2.536 191.881 2.536C196.041 2.536 199.881 3.016 203.401 3.976C206.985 4.936 210.057 6.184 212.617 7.72L209.257 17.128C207.977 16.424 206.377 15.752 204.457 15.112C202.601 14.408 200.681 13.864 198.697 13.48C196.713 13.096 194.889 12.904 193.225 12.904C189.129 12.904 185.449 13.512 182.185 14.728C178.985 15.88 176.233 17.576 173.929 19.816C171.625 22.056 169.833 24.776 168.553 27.976C167.337 31.176 166.729 34.792 166.729 38.824C166.729 42.472 167.369 45.832 168.649 48.904C169.929 51.912 171.721 54.536 174.025 56.776C176.329 58.952 179.081 60.648 182.281 61.864C185.481 63.016 189.033 63.592 192.937 63.592C195.177 63.592 197.385 63.368 199.561 62.92C201.737 62.472 203.593 61.832 205.129 61V48.328H191.689V38.44H215.497V66.856ZM235.744 73V0.999994H235.841L272.897 53.512L268.481 52.552L305.345 0.999994H305.537V73H295.361V24.136L296.033 29.416L270.305 65.8H270.113L243.905 29.416L245.633 24.616V73H235.744ZM320.864 73L351.488 0.519995H352.064L382.688 73H370.976L348.704 16.552L356.096 11.656L330.944 73H320.864ZM339.488 46.888H364.256L367.808 55.72H336.416L339.488 46.888Z" fill="white"/>
</svg>
