<svg width="51" height="50" viewBox="0 0 51 50" fill="none" xmlns="http://www.w3.org/2000/svg">
<path d="M32.8592 30.2459C32.3046 29.7022 31.4143 29.711 30.8706 30.2656C30.3269 30.8201 30.3357 31.7105 30.8903 32.2542L32.8592 30.2459ZM43.6403 44.7542C44.1949 45.2979 45.0852 45.2891 45.6289 44.7345C46.1726 44.1799 46.1638 43.2896 45.6092 42.7459L43.6403 44.7542ZM21.2498 34.0104C13.7848 34.0104 7.78101 28.0847 7.78101 20.8334H4.96851C4.96851 29.6903 12.2843 36.8229 21.2498 36.8229V34.0104ZM34.7185 20.8334C34.7185 28.0847 28.7147 34.0104 21.2498 34.0104V36.8229C30.2153 36.8229 37.531 29.6903 37.531 20.8334H34.7185ZM21.2498 7.65628C28.7147 7.65628 34.7185 13.582 34.7185 20.8334H37.531C37.531 11.9764 30.2153 4.84378 21.2498 4.84378V7.65628ZM21.2498 4.84378C12.2843 4.84378 4.96851 11.9764 4.96851 20.8334H7.78101C7.78101 13.582 13.7848 7.65628 21.2498 7.65628V4.84378ZM30.8903 32.2542L43.6403 44.7542L45.6092 42.7459L32.8592 30.2459L30.8903 32.2542Z" fill="black"/>
</svg>
