<svg width="51" height="50" viewBox="0 0 51 50" fill="none" xmlns="http://www.w3.org/2000/svg">
<path fill-rule="evenodd" clip-rule="evenodd" d="M18.4063 14.5834C18.4063 10.7838 21.5559 7.65628 25.5001 7.65628C29.4442 7.65628 32.5938 10.7838 32.5938 14.5834C32.5938 18.383 29.4442 21.5104 25.5001 21.5104C21.5559 21.5104 18.4063 18.383 18.4063 14.5834ZM25.5001 4.84378C20.0554 4.84378 15.5938 9.17822 15.5938 14.5834C15.5938 19.9885 20.0554 24.3229 25.5001 24.3229C30.9447 24.3229 35.4063 19.9885 35.4063 14.5834C35.4063 9.17822 30.9447 4.84378 25.5001 4.84378ZM12.0315 38.1944C12.0315 35.1285 14.5012 32.6562 17.5315 32.6562H33.469C36.4993 32.6562 38.969 35.1285 38.969 38.1944V40.2604H12.0315V38.1944ZM17.5315 29.8437C12.9333 29.8437 9.21899 33.5898 9.21899 38.1944V41.6667C9.21899 42.4433 9.84859 43.0729 10.6252 43.0729H40.3752C41.1519 43.0729 41.7815 42.4433 41.7815 41.6667V38.1944C41.7815 33.5898 38.0672 29.8437 33.469 29.8437H17.5315Z" fill="black"/>
</svg>
